<?xml version="1.0" standalone="no"?>
<!DOCTYPE svg PUBLIC "-//W3C//DTD SVG 20010904//EN"
 "http://www.w3.org/TR/2001/REC-SVG-20010904/DTD/svg10.dtd">
<svg version="1.0" xmlns="http://www.w3.org/2000/svg"
 width="117.000000pt" height="117.000000pt" viewBox="0 0 117.000000 117.000000"
 preserveAspectRatio="xMidYMid meet">
<metadata>
Created by potrace 1.14, written by Peter Selinger 2001-2017
</metadata>
<g transform="translate(0.000000,117.000000) scale(0.100000,-0.100000)"
fill="#000000" stroke="none">
<path d="M445 1089 c-49 -27 -98 -52 -107 -56 -10 -3 -18 -10 -18 -16 0 -6 -3
-7 -6 -4 -4 3 -25 -5 -48 -18 -22 -13 -79 -44 -126 -69 -101 -53 -111 -73 -53
-106 l39 -21 -1 -77 c0 -42 -3 -82 -7 -88 -4 -6 -10 -30 -13 -53 -4 -32 -2
-41 10 -41 23 0 6 -27 -21 -34 -32 -8 -30 -24 11 -71 19 -22 36 -49 37 -60 4
-56 2 -97 -5 -102 -4 -2 -5 -9 -1 -14 3 -5 8 -22 10 -37 12 -67 85 -162 125
-162 10 0 21 -5 24 -11 5 -6 40 -9 96 -7 58 2 92 -1 97 -8 24 -37 87 -37 128
1 17 16 31 22 38 16 6 -4 38 -9 71 -10 80 -2 138 28 182 92 33 49 52 134 38
175 -9 29 4 87 24 109 23 26 51 71 51 83 0 5 -6 10 -14 10 -24 0 -43 26 -50
70 -7 43 -43 131 -59 141 -21 14 1 43 56 73 31 18 64 39 73 48 14 14 14 17 -6
36 -12 11 -52 36 -89 54 -36 18 -72 39 -79 46 -8 7 -18 10 -23 7 -5 -4 -9 -3
-9 2 0 4 -10 13 -23 18 -12 6 -74 39 -138 73 -64 34 -118 62 -120 62 -2 -1
-44 -23 -94 -51z m-256 -331 c16 -10 18 -16 9 -32 -6 -12 -14 -23 -17 -26 -3
-3 -12 -17 -20 -32 -8 -16 -15 -27 -16 -25 0 1 1 30 3 65 4 64 9 70 41 50z"/>
<path d="M1116 785 c-3 -8 -1 -15 4 -15 6 0 6 -9 1 -23 -5 -13 -5 -30 0 -39 5
-9 5 -26 0 -40 -5 -12 -5 -32 -1 -43 4 -11 4 -28 1 -39 -12 -33 -1 -76 20 -76
18 0 19 10 19 145 0 136 -1 145 -19 145 -10 0 -21 -7 -25 -15z"/>
<path d="M1145 230 c-10 -16 -35 -80 -35 -92 0 -7 39 -2 47 6 2 2 3 26 1 52
-2 37 -6 45 -13 34z"/>
</g>
</svg>
